<?xml version="1.0" encoding="utf-8"?>
<!DOCTYPE svg PUBLIC "-//W3C//DTD SVG 20010904//EN" "http://www.w3.org/TR/2001/REC-SVG-20010904/DTD/svg10.dtd">
<svg version="1.0" xmlns="http://www.w3.org/2000/svg" width="300px" height="248px" viewBox="0 0 300 248" preserveAspectRatio="xMidYMid meet">
 <g fill="#000000">
  <path d="M14.7 79.6 c-6.4 -1.7 -9.7 -4.3 -12.4 -9.4 -2.4 -4.8 -2 -7.7 1.3 -9.8 3.3 -2.3 5.5 -1.4 7.8 3 3.4 6.4 6.6 8.1 15.1 8.1 5.9 0 7.9 -0.4 10.2 -2.1 6.1 -4.5 6.8 -10.5 1.7 -13.9 -1.4 -0.9 -7.3 -2.5 -13.1 -3.6 -16.8 -3 -21.6 -5.9 -23.8 -14.6 -2.1 -8.4 1.6 -17.7 9.3 -22.8 5.4 -3.5 15.4 -5.9 22 -5.1 9.9 1.2 15.2 5.6 16 13.4 0.5 5.2 -1.1 9.7 -3 8.6 -0.7 -0.4 -0.8 -0.3 -0.4 0.4 0.8 1.3 -2.4 3.2 -5.3 3.2 -2.5 0 -5.1 -2.6 -5.1 -5 0 -1 1.1 -3.2 2.5 -4.8 1.4 -1.7 2.5 -3.3 2.5 -3.6 0 -1.2 -6.9 -3.6 -10.3 -3.6 -5.1 0 -12.4 2.9 -15.8 6.2 -2.5 2.6 -3 3.7 -2.7 7.1 0.4 5.7 3.3 7.5 14.9 9.3 12.4 1.9 18 3.9 21.2 7.2 7.2 7.5 5.9 21.1 -2.6 27.7 -7 5.2 -19.3 6.9 -30 4.1z"/>
  <path d="M92 78.9 c-4.9 -1.8 -6.2 -5.8 -5.8 -17.6 0.3 -9.2 0.1 -10.7 -1.5 -11.7 -2.7 -1.7 -8.6 2 -12.1 7.7 -2.2 3.5 -3.1 6.5 -3.5 11.7 -0.8 7.9 -1.7 9.3 -5.7 8.8 -2.5 -0.3 -3.1 -0.9 -4.1 -4.8 -1.5 -5.9 -1.7 -50.1 -0.2 -57 1.5 -7 5.9 -12 10.6 -12 3 0 3.6 0.4 5 3.7 2.5 6 1.4 16 -3 26.8 -3.4 8.2 -4.8 15.6 -2.9 15.5 0.4 -0.1 1.9 -1.8 3.4 -4 4.6 -6.7 13.8 -9.8 20.2 -6.9 4.1 1.9 4.9 5.6 4.1 17.8 -0.7 10.5 -0.6 11 1.4 12.1 1.7 0.8 2.9 0.7 5.6 -0.6 4.5 -2.1 4.8 -2.6 5 -9.3 0.3 -6.6 2.2 -10.8 6.5 -14.4 3.9 -3.3 9.1 -4.3 14.1 -2.8 10 3 10.6 17.2 1.1 25.1 -2 1.6 -3.3 3.2 -2.9 3.6 2.3 2.3 13.5 -0.7 19.4 -5.4 2.2 -1.7 2.2 -1.8 0.6 -6.7 -2.3 -7.2 -2.3 -28.8 0 -37.5 1.9 -7.2 6.7 -15.7 8.6 -15.2 0.7 0.1 1 -0.2 0.6 -0.7 -0.8 -1.4 2.8 -3.1 6.8 -3.1 7.2 0 11.4 9 10.3 22.3 -0.7 9.4 -6.2 26.7 -11.1 35 -4.6 7.6 -3.2 10.7 4.5 10.7 4 0 13.3 -5.9 12.5 -7.9 -4.1 -10.1 -4.3 -31.2 -0.6 -43.1 2.3 -7.4 6.7 -14.4 8.3 -13.4 0.7 0.4 0.8 0.3 0.4 -0.4 -0.9 -1.5 2.6 -3.2 6.7 -3.2 6.2 0 10.7 7.7 10.7 18.2 0 9.9 -4.2 24.4 -10.6 36.8 -2.1 4.1 -4 7.8 -4.2 8.2 -0.2 0.4 0.6 1.6 1.7 2.7 3.1 3.1 8 2.7 14.1 -1.1 5.7 -3.5 8.3 -3.1 8.8 1.4 0.6 4.6 -9.8 11.8 -17.1 11.8 -2.7 0 -8.3 -2.6 -10.6 -4.9 l-2.1 -2.1 -4 2.9 c-7.4 5.4 -19.1 5 -25 -0.9 l-2.1 -2.1 -3.8 3 c-2.2 1.8 -5 3 -6.7 3.1 -1.6 0 -6.3 0.2 -10.6 0.6 -8.6 0.7 -13.2 -0.4 -17.3 -4.2 l-2.6 -2.4 -3.2 2.4 c-5.8 4.2 -12.2 5.5 -17.7 3.5z m32.4 -17 c3.2 -3.8 4.2 -7.4 2.6 -9.4 -3.2 -3.9 -9 0.9 -9 7.5 0 6 2.4 6.7 6.4 1.9z m39.1 -26.5 c0.8 -3.8 1.5 -9 1.5 -11.6 0 -4.7 -1.6 -9.8 -3.1 -9.8 -1.8 0 -4.8 4.5 -5.9 8.8 -1.3 5.1 -1.5 28.5 -0.3 30.5 1 1.7 6.1 -9.8 7.8 -17.9z m29.4 6 c2.7 -8.4 3.6 -19.2 2.1 -23.8 -0.6 -2 -1.6 -3.6 -2 -3.6 -2 0 -4.9 4.5 -6.1 9.4 -1.3 5.3 -1.6 27.7 -0.3 29.7 0.9 1.5 3.8 -3.8 6.3 -11.7z"/>
  <path d="M274.6 79 c-1.6 -0.5 -3.9 -1.8 -5.1 -3 l-2.2 -2.1 -4.4 2.6 c-3.2 1.8 -5.9 2.5 -9.8 2.5 -5 0 -5.7 -0.3 -9.2 -4 -4.7 -4.9 -6.4 -11.6 -5.7 -22.8 0.5 -9.2 1.7 -11.2 6.3 -11.2 5.3 0 6 1.7 4.5 11.9 -1.3 9.4 -1 13 1.6 15.5 2.3 2.4 5.6 1.9 10.2 -1.5 l4.2 -3.1 0 -6.8 c0 -6 -0.3 -6.9 -2 -7.5 -2.8 -0.9 -5.3 -5 -4.5 -7.4 0.3 -1.2 2 -2.2 4.2 -2.8 3.4 -0.8 3.6 -1.1 5.4 -8.2 2.3 -9.2 6.1 -15.9 9.4 -16.7 3.3 -0.8 5.2 0.9 6 5.5 0.5 3.3 -1.2 14.8 -3 19.4 -0.6 1.5 -0.1 1.7 4.2 1.7 2.7 0 5.2 0.3 5.6 0.6 0.3 0.3 0.1 1.9 -0.5 3.6 -1.2 3.3 -5.7 5.8 -10.7 5.8 -3.4 0 -4.1 1.4 -4.1 7.8 0 5.9 1.8 9.4 5.3 10.7 2.4 0.8 3.8 0.4 9.2 -2.5 5.4 -2.9 6.5 -3.2 7.9 -2.1 2.4 2 1.9 4.6 -1.5 8.6 -4.6 5.2 -14 7.7 -21.3 5.5z"/>
  <path d="M241.2 33.4 c-1.7 -1.2 -2.2 -2.4 -2 -4.7 0.2 -2 0.8 -3.1 1.6 -2.9 0.8 0.1 1.1 -0.2 0.7 -0.7 -0.3 -0.6 0.3 -1.5 1.4 -2 7 -3.8 12.3 3.8 6.6 9.4 -2.8 2.9 -5.1 3.1 -8.3 0.9z"/>
 </g>
 <g fill="#285059">
  <path d="M203.8 240.3 l-6.8 -6.7 -3.8 3.7 c-3.9 3.9 -6.3 4.6 -7.9 2.5 -1.2 -1.5 -13.3 -37.6 -13.3 -39.5 0 -0.7 0.8 -1.7 1.9 -2.2 1.4 -0.8 6.3 0.5 21.2 5.4 17.5 5.9 20.8 7.4 20.9 9.7 0 0.5 -1.6 2.5 -3.5 4.7 -1.9 2.1 -3.5 4.3 -3.5 4.8 0 0.4 2.9 3.8 6.5 7.3 3.6 3.5 6.5 6.9 6.5 7.4 0 1.6 -8.3 9.6 -10 9.6 -0.8 0 -4.5 -3 -8.2 -6.7z"/>
 </g>
 <g fill="#3f6a73">
  <path d="M203.8 240.3 l-6.8 -6.7 -3.8 3.7 c-3.9 3.9 -6.3 4.6 -7.9 2.5 -1.8 -2.2 -13.8 -39.7 -13 -40.5 0.4 -0.4 10.3 8.8 22 20.5 11.7 11.7 21.8 21.2 22.5 21.2 0.6 0 1.2 0.4 1.2 0.8 0 1.4 -4.5 5.2 -6.1 5.2 -0.8 0 -4.4 -3 -8.1 -6.7z"/>
 </g>
 <g fill="#d9e5ff">
  <path d="M90.5 177.3 c-5.4 -2.8 -9.5 -7.5 -11 -12.7 -1.8 -6 -2.1 -38.4 -0.4 -45 1.4 -5.6 6.2 -11.4 11.3 -13.7 3.8 -1.7 7.8 -1.9 59.9 -1.9 61.4 0 58.5 -0.3 65.4 6.3 5.7 5.3 6.5 9.9 6.1 33.5 l-0.3 20.9 -3 4.8 c-2 3.2 -4.5 5.6 -7.4 7.2 l-4.4 2.3 -56.6 0 c-49.5 -0.1 -57 -0.3 -59.6 -1.7z"/>
 </g>
 <g fill="#ecf2ff">
  <path d="M90.5 177.3 c-5.4 -2.8 -9.5 -7.5 -11 -12.7 -1.8 -6 -2.1 -38.4 -0.4 -45 1.4 -5.6 6.2 -11.4 11.3 -13.7 3.8 -1.7 7.8 -1.9 59.9 -1.9 61.4 0 58.5 -0.3 65.4 6.3 5.7 5.3 6.5 9.9 6.1 33.5 l-0.3 20.9 -3 4.8 c-2 3.2 -4.5 5.6 -7.4 7.2 l-4.4 2.3 -56.6 0 c-49.5 -0.1 -57 -0.3 -59.6 -1.7z m67 -16.9 c4.5 -3 5.5 -7 5.5 -22.8 0 -14.5 0 -14.6 -2.5 -16.2 -2.4 -1.6 -2.7 -1.6 -4.5 0.1 -1.8 1.6 -2 3.1 -2 16 0 13.8 -0.1 14.2 -2.5 16.3 -2.6 2.3 -2.9 3.2 -1.9 7 0.6 1.9 1.1 2.2 3.1 1.7 1.4 -0.3 3.5 -1.3 4.8 -2.1z m28.6 1.6 c1.7 -0.9 1.9 -2.2 1.9 -9.9 0 -8.6 0.2 -9.3 4.7 -18.6 l4.7 -9.8 -2.3 -1.8 c-3.1 -2.5 -5.5 -1.1 -8.3 4.7 -1.2 2.4 -2.5 4.4 -2.8 4.4 -0.3 0 -1.6 -2 -2.8 -4.4 -2.8 -5.9 -5.2 -7.2 -8.4 -4.7 l-2.3 1.9 4.8 9.6 c4.5 9.3 4.7 9.9 4.7 18.4 0 10.6 1.3 12.7 6.1 10.2z"/>
 </g>
 <g fill="#fdd14d">
  <path d="M147 228.1 c-1.1 -2.2 -1.4 -9 -0.4 -11.5 0.4 -0.9 1.8 -1.6 3.4 -1.6 3.2 0 4 1.4 4 7.1 0 5 -1.5 7.9 -4 7.9 -1.1 0 -2.4 -0.9 -3 -1.9z"/>
  <path d="M123 218 c-0.9 -1.7 -0.4 -2.7 3.1 -6.5 4.5 -4.9 7.2 -5.6 9 -2.4 1 1.9 0.6 2.7 -3.2 6.5 -4.7 4.8 -7.2 5.5 -8.9 2.4z"/>
  <path d="M113.4 194.6 c-0.3 -0.8 -0.4 -2.3 -0.2 -3.3 0.3 -1.5 1.3 -1.8 6.7 -1.8 6.7 0 9.1 1.5 7.8 4.9 -0.9 2.2 -13.5 2.4 -14.3 0.2z"/>
 </g>
 <g fill="#ff6666">
  <path d="M90.5 177.3 c-5.4 -2.8 -9.5 -7.5 -11 -12.7 -1.8 -6 -2.1 -38.4 -0.4 -45 1.4 -5.6 6.2 -11.4 11.3 -13.7 3.8 -1.7 7.8 -1.9 59.9 -1.9 61.4 0 58.5 -0.3 65.4 6.3 5.7 5.3 6.5 9.9 6.1 33.5 l-0.3 20.9 -3 4.8 c-2 3.2 -4.5 5.6 -7.4 7.2 l-4.4 2.3 -56.6 0 c-49.5 -0.1 -57 -0.3 -59.6 -1.7z m31.4 -16.1 c3.8 -2 7.1 -7.3 7.1 -11.2 0 -1.4 -0.7 -3.8 -1.5 -5.4 -1.4 -2.7 -1.4 -3.3 0.1 -6.4 2.1 -4.5 1.3 -9.7 -2.3 -13.4 -4.7 -5 -16.5 -6.6 -20.3 -2.8 -1.8 1.8 -2 3.3 -2 19.3 0 21.3 0.2 21.7 9.3 21.7 4.1 0 7.4 -0.6 9.6 -1.8z m34 0 c6.1 -3.3 7.1 -6.7 7.1 -23.4 0 -14.7 0 -14.8 -2.5 -16.4 -2.4 -1.6 -2.7 -1.5 -4.5 0.1 -1.7 1.6 -2 3.4 -2.2 16.3 -0.3 12.5 -0.5 14.6 -2 15.6 -1.3 0.8 -2.3 0.8 -3.5 0 -1.5 -1 -1.9 -3.2 -2.3 -15.9 -0.5 -13.8 -0.6 -14.9 -2.7 -16.2 -1.9 -1.3 -2.4 -1.2 -4.3 0.7 -2.1 2.1 -2.2 2.9 -1.8 17.3 0.3 16.9 1.1 19.1 7.1 22.1 4.2 2.1 7.5 2 11.6 -0.2z m30.2 0.8 c1.7 -0.9 1.9 -2.2 1.9 -9.9 0 -8.6 0.2 -9.3 4.7 -18.6 l4.7 -9.8 -2.3 -1.8 c-3.1 -2.5 -5.5 -1.1 -8.3 4.7 -1.2 2.4 -2.5 4.4 -2.8 4.4 -0.3 0 -1.6 -2 -2.8 -4.4 -2.8 -5.9 -5.2 -7.2 -8.4 -4.7 l-2.3 1.9 4.8 9.6 c4.5 9.3 4.7 9.9 4.7 18.4 0 10.6 1.3 12.7 6.1 10.2z"/>
  <path d="M112 150.1 c0 -3.8 0.2 -4.1 2.9 -4.1 3.4 0 5.4 2 4.9 5.2 -0.2 1.9 -1 2.4 -4 2.6 l-3.8 0.3 0 -4z"/>
  <path d="M112 133.1 c0 -3.8 0.2 -4.1 2.9 -4.1 3.4 0 5.4 2 4.9 5.2 -0.2 1.9 -1 2.4 -4 2.6 l-3.8 0.3 0 -4z"/>
 </g>
 <g fill="#e54551">
  <path d="M149 171 c0 -7 0.2 -8 1.8 -8 3.2 0 8.5 -3.6 10.4 -7.1 1.5 -2.8 1.8 -5.7 1.8 -18.1 0 -14.7 0 -14.8 -2.5 -16.4 -2.4 -1.6 -2.7 -1.6 -4.5 0.1 -1.8 1.6 -2 3.1 -2 16 0 14.1 -0.5 16.5 -3.7 16.5 -1 0 -1.3 -5.2 -1.3 -25 l0 -25 28.5 0 c31.4 0 31.7 0 38.2 6.3 5.7 5.3 6.5 9.9 6.1 33.5 l-0.3 20.9 -3 4.8 c-2 3.2 -4.5 5.6 -7.4 7.2 -4.3 2.3 -5 2.3 -33.3 2.3 l-28.8 0 0 -8z m37.1 -9 c1.7 -0.9 1.9 -2.2 1.9 -9.9 0 -8.6 0.2 -9.3 4.7 -18.6 l4.7 -9.8 -2.3 -1.8 c-3.1 -2.5 -5.5 -1.1 -8.3 4.7 -1.2 2.4 -2.5 4.4 -2.8 4.4 -0.3 0 -1.6 -2 -2.8 -4.4 -2.8 -5.9 -5.2 -7.2 -8.4 -4.7 l-2.3 1.9 4.8 9.6 c4.5 9.3 4.7 9.9 4.7 18.4 0 10.6 1.3 12.7 6.1 10.2z"/>
 </g>
</svg>